<svg width="25" height="22" viewBox="0 0 25 22" fill="none" xmlns="http://www.w3.org/2000/svg">
<path d="M18.1561 1.00002C19.7181 1.00002 21.1857 1.58505 22.2899 2.64514C23.385 3.69947 24 5.12827 24 6.61793C24 8.10759 23.385 9.53639 22.2899 10.5907L12.5003 20L2.70948 10.5907C1.61479 9.53643 1 8.10788 1 6.61849C1 5.12911 1.61479 3.70055 2.70948 2.64628C3.25102 2.12281 3.89524 1.70777 4.60482 1.42519C5.3144 1.1426 6.07526 0.998094 6.84335 1.00002C8.40535 1.00002 9.87297 1.58505 10.9772 2.64514L11.8738 3.50682L12.5003 4.10886L13.1256 3.50682L14.0222 2.64514C14.5639 2.12203 15.2082 1.7073 15.9178 1.42493C16.6273 1.14255 17.3881 0.998133 18.1561 1.00002Z" stroke="black" stroke-width="1.5"/>
</svg>
